# xmcd CD database file
#
# Track frame offsets:
#	150
#	29087
#	52575
#
# Disc length: 1084 seconds
#
# Revision: 0
# Processed by: cddbd v1.5PL3 Copyright (c) Steve Scherf et al.
# Submitted via: CDex 1.51
#
DISCID=1c043a03
DTITLE=CHAGE Presents MULTI MAX - 愛の空で
DYEAR=1994
DGENRE=JPop
TTITLE0=愛の空で
TTITLE1=螺旋の舞台
TTITLE2=愛の空で (オリジナル・カラオケ)
EXTD=YEAR: 1994
EXTT0=
EXTT1=
EXTT2=
PLAYORDER=
